<?xml version="1.0" ?><svg height="32" id="icon" viewBox="0 0 32 32" width="32" xmlns="http://www.w3.org/2000/svg"><defs><style>
      .cls-1 {
        fill: none;
      }
    </style></defs><path d="M10,10H2V2h8ZM4,8H8V4H4Z"/><path d="M30,30H22V22h8Zm-6-2h4V24H24Z"/><path d="M20,27H8A6,6,0,0,1,8,15v2a4,4,0,0,0,0,8H20Z"/><path d="M24,17V15a4,4,0,0,0,0-8H12V5H24a6,6,0,0,1,0,12Z"/><path d="M19,11H13l-3,4,6,6,6-6Z"/><rect class="cls-1" data-name="&lt;Transparent Rectangle&gt;" height="32" id="_Transparent_Rectangle_" width="32"/></svg>